<?xml version="1.0" encoding="UTF-8" standalone="no"?>
<!-- Created with Inkscape (http://www.inkscape.org/) -->

<svg
        width="32"
        height="32"
        viewBox="0 0 32 32"
        version="1.1"
        id="svg1"
        inkscape:version="1.3.2 (091e20ef0f, 2023-11-25, custom)"
        sodipodi:docname="JsonSchemaFusion_Black.svg"
        xml:space="preserve"
        inkscape:export-filename="JsonSchemaFusion.png"
        inkscape:export-xdpi="2880"
        inkscape:export-ydpi="2880"
        xmlns:inkscape="http://www.inkscape.org/namespaces/inkscape"
        xmlns:sodipodi="http://sodipodi.sourceforge.net/DTD/sodipodi-0.dtd"
        xmlns="http://www.w3.org/2000/svg"
><sodipodi:namedview
     id="namedview1"
     pagecolor="#ffffff"
     bordercolor="#000000"
     borderopacity="0.25"
     inkscape:showpageshadow="2"
     inkscape:pageopacity="0.0"
     inkscape:pagecheckerboard="0"
     inkscape:deskcolor="#d1d1d1"
     inkscape:document-units="px"
     showgrid="true"
     inkscape:zoom="9.8827704"
     inkscape:cx="2.023724"
     inkscape:cy="12.698868"
     inkscape:window-width="1920"
     inkscape:window-height="1015"
     inkscape:window-x="0"
     inkscape:window-y="0"
     inkscape:window-maximized="1"
     inkscape:current-layer="layer1"><inkscape:grid
       id="grid1"
       units="px"
       originx="0"
       originy="0"
       spacingx="1"
       spacingy="1"
       empcolor="#0099e5"
       empopacity="0.30196078"
       color="#0099e5"
       opacity="0.14901961"
       empspacing="5"
       dotted="false"
       gridanglex="30"
       gridanglez="30"
       visible="true" /></sodipodi:namedview><defs
     id="defs1" /><g
     inkscape:label="Image"
     inkscape:groupmode="layer"
     id="layer1"><rect
       style="fill:#002255;fill-opacity:1;stroke:none;stroke-width:0.634302;stroke-linejoin:round"
       id="rect1"
       width="42.402863"
       height="42.421093"
       x="-5.0621834"
       y="-5.0482802"
       inkscape:label="Background" /><g
       style="fill:#f9f9f9"
       id="g5"
       transform="matrix(0.20656423,0,0,0.20656423,8.6913617,6.6846736)"
       inkscape:label="CheckBox"><path
         style="fill:#f9f9f9"
         d="m 10.327692,50.557486 h 28.4531 c 4.8984,0 7.3361,-2.4375 7.3361,-7.2656 v -28.6172 c 0,-4.8280999 -2.4377,-7.2655999 -7.3361,-7.2655999 h -28.4531 c -4.8749995,0 -7.3593995,2.414 -7.3593995,7.2655999 v 28.6172 c 0,4.8516 2.4844,7.2656 7.3593995,7.2656 z m 0.0703,-3.7734 c -2.3436995,0 -3.6561995,-1.2422 -3.6561995,-3.6797 v -28.2422 c 0,-2.4375 1.3125,-3.6797 3.6561995,-3.6797 h 28.3125 c 2.3203,0 3.6328,1.2422 3.6328,3.6797 v 28.2422 c 0,2.4375 -1.3125,3.6797 -3.6328,3.6797 z m 11.2266,-6.1172 c 0.7734,0 1.4062,-0.375 1.8984,-1.125 l 11.5781,-18.2109 c 0.2813,-0.4454 0.5625,-0.9844 0.5625,-1.5 0,-1.0781 -0.9375,-1.7579 -1.9218,-1.7579 -0.6329,0 -1.2188,0.3751 -1.6407,1.0782 l -10.5703,16.9453 -5.4609,-7.0547 c -0.5156,-0.6797 -1.0781,-0.9375 -1.711,-0.9375 -1.0312,0 -1.8515,0.8203 -1.8515,1.875 0,0.5157 0.2109,1.0313 0.5625,1.4766 l 6.539,8.1093 c 0.6329,0.75 1.2422,1.1016 2.0157,1.1016 z"
         id="path1-8"
         inkscape:label="path1-8" /></g><g
       style="fill:#f2f2f2"
       id="g6"
       transform="matrix(0.11601306,0,0,0.11601306,-0.88174629,2.9135981)"
       inkscape:label="Brackets"><path
         d="m 60.691205,112.80111 a 29.7852,29.7852 0 0 1 8.023,10.25977 c 4.80171,9.90332 4.80171,22.02148 4.80171,33.74023 0,24.31348 1.01953,36 24,36 a 8,8 0 0 1 0,16 c -17.48145,0 -29.32422,-6.14355 -35.19824,-18.25977 -4.80176,-9.90332 -4.80176,-22.02148 -4.80176,-33.74023 0,-24.31348 -1.01953,-36 -24,-36 a 8,8 0 0 1 0,-16 c 22.98047,0 24,-11.686521 24,-36.000001 0,-11.71875 0,-23.83691 4.80176,-33.74023 5.87402,-12.11622 17.71679,-18.25977 35.19824,-18.25977 a 8,8 0 0 1 0,16 c -22.98047,0 -24,11.68652 -24,36 0,11.71875 0,23.83691 -4.80176,33.740231 a 29.7852,29.7852 0 0 1 -8.02295,10.25977 z m 196.824705,-8 c -22.98047,0 -24,-11.686521 -24,-36.000001 0,-11.71875 0,-23.83691 -4.80176,-33.74023 -5.87402,-12.11622 -17.71679,-18.25977 -35.19824,-18.25977 a 8,8 0 0 0 0,16 c 22.98047,0 24,11.68652 24,36 0,11.71875 0,23.83691 4.80176,33.740231 a 29.7852,29.7852 0 0 0 8.02295,10.25977 29.7852,29.7852 0 0 0 -8.023,10.25977 c -4.80171,9.90332 -4.80171,22.02148 -4.80171,33.74023 0,24.31348 -1.01953,36 -24,36 a 8,8 0 0 0 0,16 c 17.48145,0 29.32422,-6.14355 35.19824,-18.25977 4.80176,-9.90332 4.80176,-22.02148 4.80176,-33.74023 0,-24.31348 1.01953,-36 24,-36 a 8,8 0 0 0 0,-16 z"
         id="path1-9"
         style="fill:#f2f2f2" /></g><g
       style="fill:#000000"
       id="g7"
       transform="matrix(1.926838,0,0,1.926838,-393.41207,-388.21124)"
       inkscape:label="Cross"><path
         d="m 216.23646,211.111 c 0.0313,-0.0609 0.026,-0.13001 -0.001,-0.18745 0.008,-0.0653 -0.009,-0.13161 -0.0711,-0.18238 -0.0575,-0.0473 -0.11507,-0.0947 -0.17251,-0.14201 -0.10116,-0.0831 -0.2594,-0.10937 -0.35773,0 -0.44665,0.497 -0.91369,0.97243 -1.39786,1.43053 -0.35998,-0.33626 -0.72432,-0.66796 -1.08603,-1.0001 -0.12694,-0.11653 -0.31073,-0.0801 -0.39061,0.0588 -0.11639,0.0576 -0.21065,0.13308 -0.28863,0.26152 -0.037,0.0612 -0.0342,0.13849 0,0.19992 0.23352,0.41869 0.6849,0.78682 1.05603,1.1256 -0.0497,0.0445 -0.099,0.0893 -0.14962,0.13279 -0.50002,0.4294 -0.83727,0.70184 -0.21154,1.14211 0.009,0.005 0.0172,0.004 0.0256,0.009 0.0118,0.005 0.0235,0.009 0.0367,0.0117 0.004,1.6e-4 0.008,6.7e-4 0.0118,5.3e-4 0.0132,10e-4 0.0255,0.004 0.0385,10e-4 0.33642,-0.0661 0.64928,-0.3296 0.93312,-0.61991 0.27651,0.27255 0.57095,0.53294 0.89471,0.68743 0.077,0.0367 0.16897,0.0153 0.22833,-0.0362 0.0995,0.008 0.19021,-0.0543 0.23575,-0.14318 0.008,-0.004 0.0117,-0.008 0.0185,-0.0117 0.14465,-0.0904 0.1579,-0.27036 0.0508,-0.39443 -0.24171,-0.28011 -0.49866,-0.54639 -0.76059,-0.80793 0.47162,-0.46084 1.06052,-0.95787 1.35751,-1.53626 z"
         id="path1-1"
         style="fill:#ff0000;stroke-width:0.00918635" /></g><g
       id="g4"
       transform="matrix(-0.01781871,0,0,0.01781871,17.881646,10.733704)"
       style="fill:#f9f9f9;stroke-width:0.99968;stroke-dasharray:none"
       inkscape:label="Arrow"><path
         d="m 593.06667,846.93333 c -2.13334,0 -4.26667,0 -8.53334,-2.13333 -4.26666,-2.13333 -8.53333,-6.4 -12.8,-10.66667 L 492.8,650.66667 l -96,89.6 c -2.13333,4.26666 -6.4,6.4 -12.8,6.4 -2.13333,0 -6.4,0 -8.53333,-2.13334 -6.4,-2.13333 -12.8,-10.66666 -12.8,-19.2 V 256 c 0,-8.53333 4.26666,-17.06667 12.8,-19.2 2.13333,-2.13333 6.4,-2.13333 8.53333,-2.13333 4.26667,0 10.66667,2.13333 14.93333,6.4 l 341.33334,320 c 6.4,6.4 8.53333,14.93333 6.4,23.46666 -2.13334,8.53334 -10.66667,12.8 -19.2,14.93334 l -134.4,12.8 83.2,181.33333 c 2.13333,4.26667 2.13333,10.66667 0,17.06667 -2.13334,4.26666 -6.4,10.66666 -10.66667,12.8 L 603.73333,851.2 c -4.26666,-4.26667 -8.53333,-4.26667 -10.66666,-4.26667 z"
         fill="#e0e0e0"
         id="path1"
         style="fill:#1a1a1a;stroke-width:0.99968;stroke-dasharray:none"
         inkscape:label="Inside" /><path
         d="M 384,256 725.33333,576 561.06667,590.93333 657.06667,800 595.2,827.73333 503.46667,616.53333 384,725.33333 V 256 m 0,-42.66667 c -6.4,0 -10.66667,2.13334 -17.06667,4.26667 -14.93333,6.4 -25.6,21.33333 -25.6,38.4 v 469.33333 c 0,17.06667 10.66667,32 25.6,38.4 C 373.33333,768 379.73333,768 384,768 c 10.66667,0 21.33333,-4.26667 29.86667,-10.66667 L 486.4,689.06667 552.53333,844.8 C 556.8,855.46667 565.33333,864 576,868.26667 580.26667,870.4 586.66667,870.4 590.93333,870.4 c 6.4,0 10.66667,-2.13333 17.06667,-4.26667 L 669.86667,838.4 c 10.66666,-4.26667 19.2,-12.8 23.46666,-23.46667 4.26667,-10.66666 4.26667,-23.46666 0,-32 l -70.4,-153.6 L 727.46667,620.8 c 17.06666,-2.13333 32,-12.8 36.26666,-27.73333 6.4,-14.93334 2.13334,-34.13334 -10.66666,-44.8 l -341.33334,-320 C 405.33333,217.6 394.66667,213.33333 384,213.33333 Z"
         fill="#212121"
         id="path2"
         style="fill:#f9f9f9;stroke-width:0.99968;stroke-dasharray:none"
         inkscape:label="Outside" /></g></g></svg>
